<svg preserveAspectRatio="none" width="100%" height="100%" overflow="visible" style="display: block;" viewBox="0 0 31.9997 32" fill="none" xmlns="http://www.w3.org/2000/svg">
<g id="Chunk/Butterfly">
<path id="Icon" d="M5.99994 2.00013H0V10.0001C0 13.3138 2.68627 16.0001 5.99994 16.0001L4.07103 17.9291C2.74496 19.2551 1.99998 21.0537 1.99998 22.9291C1.99998 26.8343 5.16578 30.0001 9.07098 30.0001C10.9463 30.0001 12.7449 29.2551 14.0709 27.9291L15.9998 26.0001L17.9288 27.9291C19.2548 29.2551 21.0534 30.0001 22.9287 30.0001C26.8339 30.0001 29.9997 26.8343 29.9997 22.9291C29.9997 21.0537 29.2547 19.2551 27.9287 17.9291L25.9998 16.0001C29.3134 16.0001 31.9997 13.3138 31.9997 10.0001V2.00013H25.9998L15.9998 12.0001L5.99994 2.00013Z" fill="var(--fill-0, #267BDF)"/>
</g>
</svg>
