<svg preserveAspectRatio="none" width="100%" height="100%" overflow="visible" style="display: block;" viewBox="0 0 29.5382 29.5385" fill="none" xmlns="http://www.w3.org/2000/svg">
<g id="Chunk/Butterfly">
<path id="Icon" d="M5.53841 1.84642H0V9.23103C0 12.2898 2.47963 14.7695 5.53841 14.7695L3.75787 16.55C2.53381 17.7741 1.84614 19.4343 1.84614 21.1654C1.84614 24.7703 4.76841 27.6926 8.37321 27.6926C10.1043 27.6926 11.7645 27.0049 12.9886 25.7808L14.7691 24.0003L16.5496 25.7808C17.7737 27.0049 19.4339 27.6926 21.165 27.6926C24.7698 27.6926 27.692 24.7703 27.692 21.1654C27.692 19.4343 27.0044 17.7741 25.7803 16.55L23.9998 14.7695C27.0586 14.7695 29.5382 12.2898 29.5382 9.23103V1.84642H23.9998L14.7691 11.0772L5.53841 1.84642Z" fill="var(--fill-0, #267BDF)"/>
</g>
</svg>
