<svg preserveAspectRatio="none" width="100%" height="100%" overflow="visible" style="display: block;" viewBox="0 0 29.5385 29.5385" fill="none" xmlns="http://www.w3.org/2000/svg">
<g id="Chunk/Fish">
<path id="Icon" fill-rule="evenodd" clip-rule="evenodd" d="M7.38461 18.462L5.31448 20.5322C4.27582 21.5708 2.86709 22.1544 1.3982 22.1544H0V7.38512H1.3982C2.86709 7.38512 4.27582 7.96864 5.31448 9.0073L7.38462 11.0774L12.9231 7.38512V1.84666H16.6154L29.5385 12.9236V16.6159L16.6154 27.6928H12.9231V22.1544L7.38461 18.462ZM24 12.9236C24 13.9432 23.1734 14.7697 22.1538 14.7697C21.1342 14.7697 20.3077 13.9432 20.3077 12.9236C20.3077 11.904 21.1342 11.0774 22.1538 11.0774C23.1734 11.0774 24 11.904 24 12.9236Z" fill="var(--fill-0, #00745F)"/>
</g>
</svg>
