<svg viewBox="0 0 56 46" fill="none" xmlns="http://www.w3.org/2000/svg">
  <path d="M28 8.75C28 13.5825 24.0825 17.5 19.25 17.5C14.4175 17.5 10.5 13.5825 10.5 8.75C10.5 3.91751 14.4175 0 19.25 0C24.0825 0 28 3.91751 28 8.75Z" fill="currentColor"/>
  <path d="M10.5 24.5C4.70101 24.5 0 29.201 0 35V45.5H28V24.5H10.5Z" fill="currentColor"/>
  <path d="M45.5 24.5H35V45.5H56V35C56 29.201 51.299 24.5 45.5 24.5Z" fill="currentColor"/>
  <path d="M42 17.5C45.866 17.5 49 14.366 49 10.5C49 6.63401 45.866 3.5 42 3.5C38.134 3.5 35 6.63401 35 10.5C35 14.366 38.134 17.5 42 17.5Z" fill="currentColor"/>
</svg>
