<svg width="139" height="89" viewBox="0 0 139 89" fill="none" xmlns="http://www.w3.org/2000/svg">
<path fill-rule="evenodd" clip-rule="evenodd" d="M138.272 44.4443C138.272 68.9903 117.636 88.8887 92.181 88.8887C66.7863 88.8887 46.1884 69.0845 46.0908 44.6189V88.8889C20.6357 88.8889 0 68.9907 0 44.4448C0 19.8989 20.6355 0.000456184 46.0906 0.000456184L46.0908 44.2698C46.1884 19.8041 66.7863 0 92.181 0C117.636 0 138.272 19.8984 138.272 44.4443ZM86.4198 24.9997C86.4198 21.9315 88.9992 19.4442 92.1811 19.4442C95.363 19.4442 97.9424 21.9315 97.9424 24.9997V63.8885C97.9424 66.9568 95.363 69.444 92.1811 69.444C88.9992 69.444 86.4198 66.9567 86.4198 63.8885V24.9997Z" fill="white"/>
</svg>
